<svg width="25" viewBox="0 0 25 42" xmlns="http://www.w3.org/2000/svg">
          <defs>
            <path
              id="path-1"
              d="M13.792.358L3.398 7.442C.567 9.694-.38 12.479.558 15.796c.132.435.538 1.991 2.566 3.433.69.492 2.2 1.155 4.527 1.989l-.053.035-4.963 3.297c-2.19 1.751-2.546 3.96-1.07 6.625 1.273 1.643 3.644 2.09 5.527 1.365 1.256-.483 4.364-2.538 9.326-5.764 1.616-1.875 2.28-3.92 1.99-6.136-.444-2.704-2.23-4.659-5.358-5.864l-2.13-.903 7.7-5.488L13.792.358z"
            />
            <path
              id="path-3"
              d="M5.473 6.005c-1.42 2.211-1.11 4.067.93 5.568 2.212.999 3.697 1.644 4.455 1.936l4.65.924 3.111-6.449C15.536 3.115 13.927.573 13.792.358c-.213.154-2.986 2.036-8.319 5.647z"
            />
            <path
              id="path-4"
              d="M7.5 21.23l4.824 2.086c1.845 1.442 2.073 3.172.684 5.19-1.388 2.018-2.698 3.284-3.928 3.498-3.298 1.13-4.947 1.696-4.947 1.696s-1.377-.946-4.132-2.839c-.558-3.342-.558-5.104 0-5.284.837-.27 2.78-3.052 3.305-3.347.35-.197 1.749-.63 4.194-1.3z"
            />
            <path
              id="path-5"
              d="M20.6 7.133l5 6.667c.663.884.484 2.137-.4 2.8-.346.26-.767.4-1.2.4h-10c-1.105 0-2-.896-2-2 0-.433.14-.854.4-1.2l5-6.667c.663-.883 1.916-1.062 2.8-.4.152.114.286.249.4.4z"
            />
          </defs>
          <g fill="none" fill-rule="evenodd">
            <g transform="translate(0 4)">
              <mask id="mask-2" fill="#fff"><use href="#path-1" /></mask>
              <use fill="#696cff" href="#path-1" />
              <g mask="url(#mask-2)">
                <use fill="#696cff" href="#path-3" />
                <use fill="#FFF" fill-opacity=".2" href="#path-3" />
              </g>
              <g mask="url(#mask-2)">
                <use fill="#696cff" href="#path-4" />
                <use fill="#FFF" fill-opacity=".2" href="#path-4" />
              </g>
            </g>
            <g transform="translate(0 -4) rotate(-300 19 11) ">
              <use fill="#696cff" href="#path-5" />
              <use fill="#FFF" fill-opacity=".2" href="#path-5" />
            </g>
          </g>
        </svg>